<?xml version="1.0" encoding="utf-8"?>
<!-- Generator: Adobe Illustrator 18.0.0, SVG Export Plug-In . SVG Version: 6.00 Build 0)  -->
<!DOCTYPE svg PUBLIC "-//W3C//DTD SVG 1.1//EN" "http://www.w3.org/Graphics/SVG/1.1/DTD/svg11.dtd">
<svg version="1.1" id="Layer_1" xmlns="http://www.w3.org/2000/svg" xmlns:xlink="http://www.w3.org/1999/xlink" x="0px" y="0px"
	 viewBox="157.2 313.2 235.6 235.6" enable-background="new 157.2 313.2 235.6 235.6" xml:space="preserve">
<g>
	<path fill="#FFFFFF" d="M358.3,347.7c-22.4-22.4-51.5-34.5-83.3-34.5s-60.9,12.1-83.3,34.5c-22.4,22.4-34.5,51.5-34.5,83.3
		s12.1,60.9,34.5,83.3c22.4,22.4,51.5,34.5,83.3,34.5s60.9-12.1,83.3-34.5c22.4-22.4,34.5-51.5,34.5-83.3S380.3,370.1,358.3,347.7z
		 M342.2,496.4c-17.9-11.2-36.7-20.2-36.7-20.2c-2.7-1.3-4.5-5.8-5.4-10.8c-0.4-1.3-0.4-3.1-0.4-4.5c19.3-16.6,15.2-52.9,15.2-52.9
		c-1.8-40.3-35.8-40.3-39-39.9c-3.1,0-37.2-0.4-39,39.9c0,0-4,35.8,15.2,52.9c0,1.3-0.4,3.1-0.4,4.5c-0.9,4.9-2.7,9.4-5.4,10.8
		c0,0-19.3,9.4-36.7,20.2c-16.6-17-26.4-39.9-26.4-65.4c0-51.5,42.1-93.6,93.6-93.6s93.6,42.1,93.6,93.6
		C368.6,456.5,358.3,479.4,342.2,496.4z"/>
</g>
</svg>
