<?xml version="1.0" encoding="UTF-8" standalone="no"?>
<svg width="170px" height="36px" viewBox="0 0 170 36" version="1.1" xmlns="http://www.w3.org/2000/svg" xmlns:xlink="http://www.w3.org/1999/xlink" xmlns:sketch="http://www.bohemiancoding.com/sketch/ns">
    <!-- Generator: Sketch 3.4.4 (17249) - http://www.bohemiancoding.com/sketch -->
    <title>logo</title>
    <desc>Created with Sketch.</desc>
    <defs>
        <path id="path-1" d="M0,0.517263158 L169.141549,0.517263158 L169.141549,36 L0,36 L0,0.517263158 Z"></path>
    </defs>
    <g id="Page-1" stroke="none" stroke-width="1" fill="none" fill-rule="evenodd" sketch:type="MSPage">
        <g id="Desktop" sketch:type="MSArtboardGroup" transform="translate(-120.000000, -39.000000)">
            <g id="logo" sketch:type="MSLayerGroup" transform="translate(120.000000, 39.000000)">
                <g id="Group-3">
                    <mask id="mask-2" sketch:name="Clip 2" fill="white">
                        <use xlink:href="#path-1"></use>
                    </mask>
                    <g id="Clip-2"></g>
                    <path d="M8.85422967,23.6916 C11.4154714,23.6916 12.7346143,22.2099158 12.7346143,19.6254947 C12.7346143,17.4219158 10.849856,15.6370737 8.25103187,15.6370737 L3.99482308,15.6370737 L3.99482308,23.6916 L8.85422967,23.6916 Z M8.02553736,11.8002316 C10.3237022,11.8002316 12.0186692,10.2427579 12.0186692,8.26654737 C12.0186692,6.02696842 10.8893176,4.73475789 8.58927363,4.73475789 L3.99482308,4.73475789 L3.99482308,11.8002316 L8.02553736,11.8002316 Z M2.44830659,27.5284421 C1.09346044,27.5284421 -0.000187912088,26.4257053 -0.000187912088,25.0974947 L-0.000187912088,3.32886316 C-0.000187912088,1.99875789 1.09346044,0.897915789 2.44830659,0.897915789 L8.58927363,0.897915789 C13.0371527,0.897915789 16.0136802,3.86128421 16.0136802,8.26654737 C16.0136802,10.2806526 15.1831088,12.1431789 13.4881418,13.5471789 C15.7111418,15.0667579 16.7277462,17.3461263 16.7277462,19.6254947 C16.7277462,24.3756 13.5633066,27.5284421 8.85422967,27.5284421 L2.44830659,27.5284421 Z" id="Fill-1" fill="#FFFFFF" sketch:type="MSShapeGroup" mask="url(#mask-2)"></path>
                </g>
                <path d="M20.2766538,9.86324211 C20.2766538,8.76050526 21.180511,7.88892632 22.2365769,7.88892632 C23.3283462,7.88892632 24.1570385,8.76050526 24.1570385,9.86324211 L24.1570385,25.9325053 C24.1570385,27.0352421 23.3283462,27.9087158 22.2365769,27.9087158 C21.180511,27.9087158 20.2766538,27.0352421 20.2766538,25.9325053 L20.2766538,9.86324211 Z M22.2365769,4.92555789 C21.0301813,4.92555789 20.0511593,3.93650526 20.0511593,2.72008421 C20.0511593,1.50555789 21.0301813,0.5184 22.2365769,0.5184 C23.4429725,0.5184 24.4219945,1.50555789 24.4219945,2.72008421 C24.4219945,3.93650526 23.4429725,4.92555789 22.2365769,4.92555789 L22.2365769,4.92555789 Z" id="Fill-4" fill="#FFFFFF" sketch:type="MSShapeGroup"></path>
                <path d="M28.4171934,2.49328421 C28.4171934,1.39054737 29.2834681,0.518968421 30.3752374,0.518968421 C31.4313033,0.518968421 32.297578,1.39054737 32.297578,2.49328421 L32.297578,8.26654737 L35.9524681,8.26654737 C37.0442374,8.26654737 37.9123912,9.06612632 37.9123912,10.1290737 C37.9123912,11.2678105 37.0818198,12.0294947 35.9524681,12.0294947 L32.297578,12.0294947 L32.297578,21.9446526 C32.297578,23.3865474 33.0511055,24.2998105 34.0301275,24.2998105 C35.1237758,24.2998105 35.3116879,23.9947579 36.027633,23.9947579 C36.9690725,23.9947579 37.9123912,24.6787579 37.9123912,25.8193895 C37.9123912,26.7686526 37.194567,27.4905474 36.2531275,27.6800211 C35.5014791,27.8334947 34.7836549,27.9092842 34.0301275,27.9092842 C30.9408527,27.9092842 28.4171934,25.4764421 28.4171934,21.9825474 L28.4171934,2.49328421 Z" id="Fill-6" fill="#FFFFFF" sketch:type="MSShapeGroup"></path>
                <path d="M43.3785659,18.8289474 C41.343478,18.0691579 39.7612582,16.4737895 39.7612582,13.6241053 C39.7612582,10.2817895 42.5122912,7.88873684 46.2780495,7.88873684 C48.8411703,7.88873684 50.1603132,8.26768421 51.4042912,8.838 C52.1559396,9.14115789 52.6463901,9.82515789 52.6463901,10.6228421 C52.6463901,11.61 51.8552802,12.4455789 50.8386758,12.4455789 C50.5755989,12.4455789 50.1978956,12.3697895 49.9348187,12.2561053 C48.9915,11.8013684 47.4468626,11.4963158 46.2028846,11.4963158 C44.6601264,11.4963158 43.6416429,12.2561053 43.6416429,13.5483158 C43.6416429,14.5354737 44.3951703,15.1436842 45.1862802,15.4089474 L48.8787527,16.6253684 C51.3648297,17.4609474 52.8718846,19.17 52.8718846,21.9438947 C52.8718846,25.2862105 50.1978956,27.9085263 46.1653022,27.9085263 C43.9441813,27.9085263 42.1345879,27.4897895 40.7402802,26.8436842 C40.0243352,26.5026316 39.5733462,25.8565263 39.5733462,25.0967368 C39.5733462,24.1095789 40.4020385,23.1982105 41.4562253,23.1982105 C41.7211813,23.1982105 42.0594231,23.3118947 42.3225,23.4255789 C43.3409835,23.958 44.5849615,24.2990526 46.240467,24.2990526 C48.0500604,24.2990526 48.9915,23.6150526 48.9915,22.3228421 C48.9915,20.9188421 47.8621484,20.4622105 46.4678407,19.9695789 L43.3785659,18.8289474 Z" id="Fill-8" fill="#FFFFFF" sketch:type="MSShapeGroup"></path>
                <path d="M55.7414901,15.4854947 C55.7414901,13.2819158 56.4574352,11.3814947 57.8141604,10.0153895 C59.2084681,8.60949474 61.0913473,7.8876 63.2767648,7.8876 C65.1220615,7.8876 66.8940725,8.30444211 68.5138747,9.10402105 C69.2298198,9.44507368 69.605644,10.1290737 69.605644,10.8509684 C69.605644,11.8002316 68.8164132,12.6358105 67.7603473,12.6358105 C67.4202264,12.6358105 67.119567,12.5221263 66.8564901,12.4084421 C65.7628418,11.9139158 64.5188637,11.4970737 63.2767648,11.4970737 C60.9786,11.4970737 59.6218747,12.8650737 59.6218747,15.1823368 L59.6218747,20.5766526 C59.6218747,22.9318105 60.9786,24.2619158 63.2767648,24.2619158 C64.5188637,24.2619158 65.8774681,23.8431789 66.9692374,23.3107579 C67.2323143,23.1591789 67.4953912,23.1212842 67.7979297,23.1212842 C68.7393692,23.1212842 69.605644,23.8810737 69.605644,24.9459158 C69.605644,25.6678105 69.1922374,26.3499158 68.4762923,26.6928632 C66.8564901,27.4905474 65.1220615,27.9092842 63.2767648,27.9092842 C61.0913473,27.9092842 59.2084681,27.1854947 57.8141604,25.7814947 C56.4574352,24.4134947 55.7414901,22.5130737 55.7414901,20.2716 L55.7414901,15.4854947 Z" id="Fill-10" fill="#FFFFFF" sketch:type="MSShapeGroup"></path>
                <path d="M82.4592066,19.2840632 L78.578822,19.2840632 C75.299756,19.2840632 75.111844,21.0689053 75.111844,21.7150105 C75.111844,22.4009053 75.299756,24.2994316 78.578822,24.2994316 C79.8603824,24.2994316 81.252811,24.1080632 82.4592066,23.8049053 L82.4592066,19.2840632 Z M86.3395912,24.6025895 C86.3395912,25.6674316 85.6612286,26.5788 84.6822066,26.9198526 C82.8350308,27.5659579 80.6890747,27.9089053 78.578822,27.9089053 C76.2806571,27.9089053 74.4729429,27.3385895 73.1895033,26.2358526 C71.909822,25.1350105 71.2314593,23.5775368 71.2314593,21.7150105 C71.2314593,19.8543789 71.909822,18.4105895 73.1895033,17.3476421 C74.4729429,16.2449053 76.2806571,15.6764842 78.578822,15.6764842 L82.4592066,15.6764842 L82.4592066,14.3463789 C82.4592066,12.7510105 81.2903934,11.4966947 79.3323495,11.4966947 C77.5622176,11.4966947 76.5813165,11.7240632 75.2621736,12.5217474 C74.9615143,12.7131158 74.5481077,12.8646947 74.2079868,12.8646947 C73.1895033,12.8646947 72.360811,12.1049053 72.360811,11.1537474 C72.360811,10.4716421 72.6633495,9.78764211 73.3041297,9.4068 C75.3373385,8.23016842 77.1093495,7.88722105 79.8228,7.88722105 C84.0414264,7.88722105 86.3395912,10.9642737 86.3395912,14.3463789 L86.3395912,24.6025895 Z" id="Fill-12" fill="#FFFFFF" sketch:type="MSShapeGroup"></path>
                <path d="M100.737603,12.8645053 C99.7209989,11.9910316 98.401856,11.4965053 97.0451308,11.4965053 C94.7469659,11.4965053 93.3902407,12.8645053 93.3902407,15.1817684 L93.3902407,20.6139789 C93.3902407,22.9691368 94.7469659,24.2992421 97.0451308,24.2992421 C98.3266912,24.2992421 99.5687901,24.1476632 100.737603,23.8047158 L100.737603,12.8645053 Z M89.509856,15.4849263 C89.509856,13.2832421 90.1882187,11.3449263 91.544944,9.97692632 C92.9392516,8.57103158 94.8615923,7.88892632 97.0451308,7.88892632 C98.3266912,7.88892632 99.7209989,8.34366316 100.737603,8.87608421 L100.737603,2.49271579 C100.737603,1.39187368 101.566296,0.5184 102.659944,0.5184 C103.751713,0.5184 104.617988,1.39187368 104.617988,2.49271579 L104.617988,24.6024 C104.617988,25.6672421 103.941504,26.5786105 102.960603,26.9196632 C101.077724,27.5657684 99.0802187,27.9087158 97.0451308,27.9087158 C94.8615923,27.9087158 92.9768341,27.1868211 91.5825264,25.7809263 C90.2258011,24.4129263 89.509856,22.5144 89.509856,20.2729263 L89.509856,15.4849263 Z" id="Fill-14" fill="#FFFFFF" sketch:type="MSShapeGroup"></path>
                <path d="M119.16633,16.1312211 C119.16633,12.9783789 117.884769,11.4966947 115.473857,11.4966947 C113.100527,11.4966947 111.818967,12.9404842 111.818967,16.1312211 L119.16633,16.1312211 Z M111.818967,19.7406947 C111.818967,21.2981684 112.083923,22.3232211 112.572495,23.0072211 C113.215154,23.8428 114.194176,24.2994316 115.473857,24.2994316 C116.905747,24.2994316 118.262473,23.8806947 119.544033,23.3122737 C119.80711,23.1966947 120.070187,23.1209053 120.335143,23.1209053 C121.276582,23.1209053 122.18044,23.9185895 122.18044,24.9076421 C122.18044,25.6295368 121.87978,26.2756421 121.201418,26.6166947 C119.393703,27.4901684 117.471363,27.9089053 115.473857,27.9089053 C113.290319,27.9089053 111.40556,27.1851158 110.011253,25.7811158 C108.654527,24.4131158 107.938582,22.5145895 107.938582,20.2731158 L107.938582,15.4851158 C107.938582,13.2834316 108.654527,11.3830105 110.011253,10.0150105 C111.40556,8.60911579 113.290319,7.88722105 115.473857,7.88722105 C117.696857,7.88722105 119.581615,8.60911579 120.936462,10.0150105 C122.295066,11.3830105 123.046714,13.2834316 123.046714,15.4851158 L123.046714,17.2718526 C123.046714,18.6379579 121.954945,19.7406947 120.59822,19.7406947 L111.818967,19.7406947 Z" id="Fill-16" fill="#FFFFFF" sketch:type="MSShapeGroup"></path>
                <path d="M147.090818,14.7637895 C147.090818,12.9789474 145.621345,11.4972632 143.851213,11.4972632 C142.6824,11.4972632 141.553048,11.8762105 140.611609,12.4844211 L140.611609,25.9332632 C140.611609,27.0341053 139.743455,27.9075789 138.651686,27.9075789 C137.597499,27.9075789 136.729345,27.0341053 136.729345,25.9332632 L136.729345,14.2692632 C136.729345,12.0675789 135.299334,11.4972632 133.64007,11.4972632 C132.285224,11.4972632 131.454653,11.6867368 130.250136,12.0296842 L130.250136,25.9332632 C130.250136,27.0341053 129.383862,27.9075789 128.327796,27.9075789 C127.236026,27.9075789 126.369752,27.0341053 126.369752,25.9332632 L126.369752,11.3058947 C126.369752,10.2808421 127.008653,9.36947368 127.951971,8.98863158 C129.910015,8.22884211 131.832356,7.88778947 134.017774,7.88778947 C135.825488,7.88778947 137.407708,8.45810526 138.576521,9.44526316 C140.121158,8.42021053 141.966455,7.88778947 143.851213,7.88778947 C147.91951,7.88778947 150.971202,10.9648421 150.971202,15.0669474 L150.971202,25.9332632 C150.971202,27.0341053 150.104927,27.9075789 149.011279,27.9075789 C147.91951,27.9075789 147.090818,27.0341053 147.090818,25.9332632 L147.090818,14.7637895 Z" id="Fill-18" fill="#FFFFFF" sketch:type="MSShapeGroup"></path>
                <path d="M159.533416,26.7686526 L153.315405,10.5459158 C153.240241,10.3185474 153.165076,10.0532842 153.165076,9.82591579 C153.165076,8.83686316 154.070812,7.8876 155.162581,7.8876 C155.953691,7.8876 156.669636,8.38212632 156.932713,9.14191579 L161.453878,21.6396 L165.334263,9.21770526 C165.599219,8.42002105 166.352746,7.8876 167.143856,7.8876 C168.16046,7.8876 169.141362,8.72317895 169.141362,9.86381053 C169.141362,10.0532842 169.103779,10.2806526 169.026735,10.4701263 L162.28257,30.7949684 C161.265966,33.9118105 158.629559,35.9998105 155.049834,35.9998105 C154.03323,35.9998105 153.127493,35.2779158 153.127493,34.1391789 C153.127493,33.1501263 153.958065,32.3524421 154.974669,32.3145474 C156.632054,32.2387579 158.063944,31.5547579 158.591977,29.8836 L159.533416,26.7686526 Z" id="Fill-20" fill="#FFFFFF" sketch:type="MSShapeGroup"></path>
            </g>
        </g>
    </g>
</svg>